<?xml version="1.0" encoding="utf-8"?>
<!-- Generator: Adobe Illustrator 24.2.0, SVG Export Plug-In . SVG Version: 6.00 Build 0)  -->
<svg version="1.1" xmlns="http://www.w3.org/2000/svg" xmlns:xlink="http://www.w3.org/1999/xlink" x="0px" y="0px"
	 viewBox="0 0 500 376" style="enable-background:new 0 0 500 376;" xml:space="preserve">
<style type="text/css">
	.st0{display:none;}
	.st1{display:inline;fill:#A9E4EA;}
	.st2{fill:#2BA55F;}
	.st3{fill:#2E291A;}
	.st4{fill:#4154A1;}
	.st5{fill:#FFFFFF;}
	.st6{fill:#C1BFB9;}
	.st7{fill:#5BAAB2;}
	.st8{fill:#DBDAD5;}
	.st9{fill:#66433A;}
	.st10{fill:#95ACFF;}
	.st11{fill:#A6D4DC;}
	.st12{fill:#693900;}
	.st13{fill:#E0ACA0;}
	.st14{opacity:0.4;fill:#B0D7FF;}
	.st15{fill:#367A7A;}
	.st16{fill:#563100;}
	.st17{fill:#4F9599;}
	.st18{fill:#9F663A;}
	.st19{fill:#905C38;}
	.st20{fill:#408989;}
	.st21{fill:#1E2300;}
	.st22{fill:#A3A3A0;}
	.st23{fill:#C1C1C1;}
	.st24{fill:#7C5500;}
	.st25{fill:#F0D0C7;}
	.st26{fill:#4D9296;}
	.st27{fill:#5C8DFF;}
	.st28{fill:#82D4FF;}
	.st29{fill:#0C4DC1;}
	.st30{fill:#65B3CE;}
	.st31{fill:#364A89;}
	.st32{fill:#7A440A;}
	.st33{fill:#94D3D6;}
	.st34{fill:#4E1E00;}
</style>
<g id="BACKGROUND" class="st0">
	<rect y="-112" class="st1" width="500" height="500"/>
</g>
<g id="OBJECT" xmlns:vectornator="http://vectornator.io">
	<ellipse class="st2" cx="252.5" cy="353.4" rx="201.5" ry="22.5"/>
	<g>
		<path class="st3" d="M400.2,327.8c0,0,1.7,11.8,1.9,14.6c0.1,2.9-0.4,8.5,0.1,10.1c0.6,1.6,8.2,2.3,12.8,2.3s11.9,2.7,15.9,1.6
			c4-1.1,6.9-1.9,5.9-4.3c-1-2.4-10.1-6.3-15.5-10.1c-5.5-3.7-7.5-18.7-7.5-18.7L400.2,327.8z"/>
		<path class="st3" d="M364.9,332.4c0,0-2.8,17.9-3,21.8c-0.2,3.9-0.4,6.7-3.7,7.5c-3.2,0.9-12.7,1.5-17.4,0.6
			c-4.7-0.9-3.4-4.3-3.4-5.6c0-1.3,6.2-8,8-12.1c1.7-4.1,5.8-12.9,5.8-12.9L364.9,332.4z"/>
		<path class="st4" d="M408.7,180.9c0,0,6.8,136.3,8.5,145.5c1.7,9.3-11.4,13.4-16.8,9.9c-5.4-3.4-19-146.8-19-150.9
			C381.4,181.4,408.7,180.9,408.7,180.9z"/>
		<path class="st4" d="M395.5,200.1c0,0-25.6,126.7-26.3,131.9c-0.6,5.2-7.3,5.8-12.9,4.7c-5.6-1.1-7.1-5.2-8.4-8.6
			c-1.3-3.4,5-57.5,5-57.5L395.5,200.1z"/>
		<path class="st5" d="M421.1,267.7c-0.3-2.3-1.6-12.6-3.9-41.2c-2.3-28.6-10.6-60.3-10.5-67.5c0.1-7.2,2.7-18.7,2-24.4
			c-0.7-5.7-5.3-21.4-7.6-23.4c-2.3-2-19-9.3-19-9.3s-5.2-3.3-10.8-3.4c-5.6-0.1-21.1,4.2-21.8,10.9c-0.7,6.7,3.3,26.1,7.3,35.8
			c4,9.6,10.6,25,5.9,35c-4.7,10.1-15.9,97.5-15.9,97.5s5.6,2.7,20.7,3c2.6,0,5.9,0.1,9.6,0.1l0.3-1c0,0,14.6-76.4,15.1-97.7
			l10.5-0.3l-1.4,97.9l0,0.6c11.5-0.3,21-0.7,21.1-1.1C422.8,278.3,421.3,270,421.1,267.7z"/>
		<path class="st6" d="M401.1,111.1c0,0,5.9,3.6,7.3,9.9s5.8,15.2,8.3,18.8c2.5,3.7,6.6,12.1,4,15.4c-2.6,3.3-2.9,3.2-7,2
			c-4.1-1.2-9.8-24.7-9.9-25C403.7,132,400,112.7,401.1,111.1z"/>
		<path class="st7" d="M391.8,79.6c0,0,3.2-2.2,3.4-6.3c0.1-4.1,2.5-6.1-1-10.7c-3.5-4.6-5-1.3-6.9-4.7c-1.9-3.4-9.1-6.4-14-2.8
			c-4.9,3.6-11,3.5-13.5,9.3c-2.5,5.8-0.2,16.8,2.9,22.1c3.1,5.2,3.3,4.7,5.2,6.5c1.9,1.7,3.8,1.8,4.2,1.6
			C372.7,94.3,391.8,79.6,391.8,79.6z"/>
		<path class="st8" d="M350.5,126.1c4.3,10.1,19,40.1,27.5,40.6c6.7,0.5,21.7-10,27.9-14.5c1.7-1.2,2.7-2,2.7-2s1.5,0,3.8-0.8
			c2.3-0.8,6.1-3.3,6.1-3.3s-0.2,0.6,0.3,0.9c0.5,0.3,1.2,0.4,1.9-0.4c0.7-0.7,0.1-2.5,0.1-2.5c0.7-1.6-0.4-2.3-0.4-2.3
			s0.6-1.5-0.6-2c-1.2-0.5-5.1,0.7-5.1,0.7l1.7-1.2c0,0,3.3,0.9,2.8-0.9c-0.5-1.7-2.9-2.5-5.1-1.9c-2.2,0.6-9.5,7.9-9.5,7.9
			l-6.1,2.1l-17.8,6.2c0,0-14.2-31.9-19.2-39.2c-5-7.3-10.1-8.2-10.1-8.2C348.1,108.8,346.2,116,350.5,126.1z"/>
		<path class="st9" d="M370.5,99.7c1.8,2.7,11.5,9,12.7,7.3c1.2-1.7-0.2-4.5,0.1-7.3c0.3-2.8,0.9,0,4.6-2.5
			c3.8-2.5,5.7-9.4,5.3-12.6c-0.4-3.2-1.3-14.3-1.3-14.3c-6.5-3.8-15.9-2.6-18.5,3.1c-1.1,2.4-1.7,4.8-1.9,7.2
			c0,0.4-0.1,0.7-0.1,1.1c-0.2,2.7-0.1,5.3,0.1,7.4c0,0.1,0,0.3,0,0.4c0,0.4,0,0.8,0,1.2C371.1,94.3,368.9,97.4,370.5,99.7z"/>
		<path class="st5" d="M393.6,81.3c0,0-0.9-0.9-5.1-1.2s-13.2,2.2-13.2,2.2s0.7,10.8,1.9,12c1.2,1.2,4.9,4.5,10.2,3.5
			C392.7,96.8,397,86.8,393.6,81.3z"/>
		<path class="st5" d="M371.4,81.7l4.4,2.1l-0.2-1.5l-4-1.7C371.4,80.9,371.4,81.3,371.4,81.7z"/>
		<path class="st5" d="M371.4,90.8l5.3,1.3l-0.4-0.9c0,0-3.1-1-4.8-1.6C371.5,89.9,371.5,90.4,371.4,90.8z"/>
		<path class="st10" d="M366,99c0,0,14.9,20.8,22,41.5c7.2,20.7,4.5,41.5,4.5,41.5l10.5-0.3c0,0-4.3-48-8.9-59.9
			c-4.6-11.9-8.5-18.2-8.5-18.2L366,99z"/>
		<path class="st11" d="M398.4,146.6l5.5,6.1l2-0.5c1.7-1.2,2.7-2,2.7-2s1.5,0,3.8-0.8c2.3-0.8,6.1-3.3,6.1-3.3s-0.2,0.6,0.3,0.9
			c0.5,0.3,1.2,0.4,1.9-0.4c0.7-0.7,0.1-2.5,0.1-2.5c0.7-1.6-0.4-2.3-0.4-2.3s0.6-1.5-0.6-2c-1.2-0.5-5.1,0.7-5.1,0.7l1.7-1.2
			c0,0,3.3,0.9,2.8-0.9c-0.5-1.7-2.9-2.5-5.1-1.9c-2.2,0.6-9.5,7.9-9.5,7.9L398.4,146.6z"/>
		<path class="st6" d="M378.6,148.1l2,4.7c0,0,1.4,2.8,6.7,2.7c0.4,0,0.8,0,1.2,0c4.6,0.2,7.7,1.8,16.7,2.4
			c9.7,0.6,13.6,0.7,14.9-0.9c1.3-1.6,1-4.3,0.1-6c0,0-3.4-2.9-9.8-4.7c-5.4-1.6-15.8,1.4-20.4,2c-0.8,0.1-1.4,0.1-1.8,0
			C385.4,147.7,378.6,148.1,378.6,148.1z"/>
		<path class="st11" d="M378.6,148.1l2,4.7c0,0,1.4,2.8,6.7,2.7c0.4,0,0.8,0,1.2,0c0.9-1.7,1.3-5.7,1.4-7.3c-0.8,0.1-1.4,0.1-1.8,0
			C385.4,147.7,378.6,148.1,378.6,148.1z"/>
		<path class="st11" d="M386,104.9c0,0-1.8-4.1-1.9-4.5c-0.1-0.4-0.4,0.7-5-0.9c-4.6-1.7-8.7-4.5-8.7-4.5s-3.7,3.8-4.5,4.1
			c-0.8,0.3,8,10.3,15.7,10.8C389.5,110.2,386,104.9,386,104.9z"/>
		<path class="st12" d="M377.1,76.8c0,1,0.4,1.8,1,1.8s1-0.8,1-1.8c0-1-0.4-1.8-1-1.8S377.1,75.8,377.1,76.8z"/>
		<ellipse class="st12" cx="389.5" cy="77.2" rx="0.9" ry="1.6"/>
		<path class="st13" d="M386.6,80.6c0.2-0.1,0.4-0.1,0.7-0.1c0.3,0,0.5-0.1,0.7-0.1c0.1,0,0.2,0,0.2,0c-0.6-1.7-1.2-4-1.7-2.9
			C386.3,78.3,386.4,79.6,386.6,80.6z"/>
		<path class="st12" d="M383.4,74.3c0,0-1.7-1.5-3.9-1.4c-2.3,0.1-3.2,1.1-3.5,0.6c-0.4-0.6,1.9-1.6,4.1-1.4
			C382.3,72.2,383.5,73.6,383.4,74.3z"/>
		<path class="st12" d="M392.7,75.4c0,0-1.1-1.5-2.6-1.4c-1.5,0.1-2.1,1.1-2.3,0.6c-0.2-0.6,1.2-1.6,2.7-1.4
			C392,73.3,392.7,74.7,392.7,75.4z"/>
		<path class="st5" d="M359.1,75.5c0,0,8.7-8.7,22.5-10.8c13.8-2,18.3,3.1,18.3,3.1v2.4c0,0-2.3-2.8-10.7-2.8s-16.2,2.9-16.2,2.9
			l-1.4-0.9l-12.2,8L359.1,75.5z"/>
		<path class="st14" d="M367.3,72.4l9.3,33.2c0,0,7.3-3.8,16.3-3.8s8.5,2.7,8.5,2.7l-1.1-35.1C400.2,69.4,384.1,59.3,367.3,72.4z"/>
	</g>
	<g>
		<path class="st15" d="M100.4,106.2c0,0-5.9,3.6-7.3,9.9c-1.4,6.2-5.8,15.2-8.3,18.8c-2.5,3.7-6.6,12.1-4,15.4c2.6,3.3,2.9,3.2,7,2
			c4.1-1.2,9.8-24.7,9.9-25C97.8,127.1,101.5,107.7,100.4,106.2z"/>
		<path class="st16" d="M101.2,322.9c0,0-1.7,11.8-1.9,14.6c-0.1,2.9,0.4,8.5-0.1,10.1c-0.6,1.6-8.2,2.3-12.8,2.3
			s-11.9,2.7-15.9,1.6c-4-1.1-6.9-1.9-5.9-4.3c1-2.4,10.1-6.3,15.5-10.1c5.5-3.7,7.5-18.7,7.5-18.7L101.2,322.9z"/>
		<path class="st16" d="M136.6,327.5c0,0,2.8,17.9,3,21.8c0.2,3.9,0.4,6.7,3.7,7.5c3.2,0.9,12.7,1.5,17.4,0.6
			c4.7-0.9,3.4-4.3,3.4-5.6c0-1.3-6.2-8-8-12.1c-1.7-4.1-5.8-12.9-5.8-12.9L136.6,327.5z"/>
		<path class="st4" d="M87.7,268.5c0,0-1.7,43.7-3.4,53c-1.7,9.3,11.4,13.4,16.8,9.9c5.4-3.4,13.6-58.2,13.6-62.3
			C114.6,265,87.7,268.5,87.7,268.5z"/>
		<path class="st4" d="M121.9,268.3c0,0,9.7,53.6,10.3,58.8c0.6,5.2,7.3,5.8,12.9,4.7c5.6-1.1,7.1-5.2,8.4-8.6
			c1.3-3.4-5-57.5-5-57.5L121.9,268.3z"/>
		<path class="st7" d="M119.3,96.9c0,0-16.7,7.3-19,9.3c-2.3,2-6.9,17.7-7.6,23.4c-0.7,5.7,1.9,17.2,2,24.4
			c0.1,7.2-8.2,38.9-10.5,67.5s-3.6,38.9-3.9,41.2c-0.3,2.3-1.7,10.6-1.6,11.5c0.1,0.9,40.1,1.7,55.1,1.4c15.1-0.3,20.7-3,20.7-3
			s-11.2-87.5-15.9-97.5c-4.7-10.1,1.9-25.4,5.9-35c4-9.6,8-29,7.3-35.8c-0.7-6.7-16.2-11.1-21.8-10.9
			C124.5,93.6,119.3,96.9,119.3,96.9z"/>
		<path class="st7" d="M109.6,74.7c0,0-3.2-2.2-3.4-6.3c-0.1-4.1-2.5-6.1,1-10.7c3.5-4.6,5.8-3.4,7.7-6.7c1.9-3.4,8.3-4.4,13.2-0.8
			c4.9,3.6,11.7,2.9,14.2,8.8c2.5,5.8,0.6,7.3,2.7,10s1.1,7.5-2,12.8c-3.1,5.2-7.7,4.6-9.6,6.3c-1.9,1.7-3.8,1.8-4.2,1.6
			C128.8,89.3,109.6,74.7,109.6,74.7z"/>
		<path class="st17" d="M151,121.1c-4.3,10.1-19,40.1-27.5,40.6c-6.7,0.5-21.7-10-27.9-14.5c-1.7-1.2-2.7-2-2.7-2s-1.5,0-3.8-0.8
			c-2.3-0.8-6.1-3.3-6.1-3.3s0.2,0.6-0.3,0.9c-0.5,0.3-1.2,0.4-1.9-0.4c-0.7-0.7-0.1-2.5-0.1-2.5c-0.7-1.6,0.4-2.3,0.4-2.3
			s-0.6-1.5,0.6-2c1.2-0.5,5.1,0.7,5.1,0.7l-1.7-1.2c0,0-3.3,0.9-2.8-0.9c0.5-1.7,2.9-2.5,5.1-1.9c2.2,0.6,9.5,7.9,9.5,7.9l6.1,2.1
			l17.8,6.2c0,0,14.2-31.9,19.2-39.2c5-7.3,10.1-8.2,10.1-8.2C153.4,103.9,155.3,111,151,121.1z"/>
		<path class="st18" d="M131,94.7c-1.8,2.7-11.5,9-12.7,7.3c-1.2-1.7,0.2-4.5-0.1-7.3c-0.3-2.8-0.9,0-4.6-2.5
			c-3.8-2.5-5.7-9.4-5.3-12.6c0.4-3.2,1.3-14.3,1.3-14.3c6.5-3.8,15.9-2.6,18.5,3.1c1.1,2.4,1.7,4.8,1.9,7.2c0,0.4,0.1,0.7,0.1,1.1
			c0.2,2.7,0.1,5.3-0.1,7.4c0,0.1,0,0.3,0,0.4c0,0.4,0,0.8,0,1.2C130.4,89.4,132.6,92.4,131,94.7z"/>
		<path class="st5" d="M107.9,76.4c0,0,0.9-0.9,5.1-1.2c4.2-0.3,13.2,2.2,13.2,2.2s-0.7,10.8-1.9,12c-1.2,1.2-4.9,4.5-10.2,3.5
			C108.8,91.9,104.5,81.8,107.9,76.4z"/>
		<path class="st5" d="M130.1,76.7l-4.4,2.1l0.2-1.5l4-1.7C130.1,76,130.1,76.4,130.1,76.7z"/>
		<path class="st5" d="M130,85.8l-5.3,1.3l0.4-0.9c0,0,3.1-1,4.8-1.6C130,85,130,85.4,130,85.8z"/>
		<path class="st11" d="M103.1,141.6l-5.5,6.1l-2-0.5c-1.7-1.2-2.7-2-2.7-2s-1.5,0-3.8-0.8c-2.3-0.8-6.1-3.3-6.1-3.3
			s0.2,0.6-0.3,0.9c-0.5,0.3-1.2,0.4-1.9-0.4c-0.7-0.7-0.1-2.5-0.1-2.5c-0.7-1.6,0.4-2.3,0.4-2.3s-0.6-1.5,0.6-2
			c1.2-0.5,5.1,0.7,5.1,0.7l-1.7-1.2c0,0-3.3,0.9-2.8-0.9c0.5-1.7,2.9-2.5,5.1-1.9c2.2,0.6,9.5,7.9,9.5,7.9L103.1,141.6z"/>
		<path class="st15" d="M122.9,143.1l-2,4.7c0,0-1.4,2.8-6.7,2.7c-0.4,0-0.8,0-1.2,0c-4.6,0.2-7.7,1.8-16.7,2.4
			c-9.7,0.6-13.6,0.7-14.9-0.9c-1.3-1.6-1-4.3-0.1-6c0,0,3.4-2.9,9.8-4.7c5.4-1.6,15.8,1.4,20.4,2c0.8,0.1,1.4,0.1,1.8,0
			C116.1,142.8,122.9,143.1,122.9,143.1z"/>
		<path class="st11" d="M122.9,143.1l-2,4.7c0,0-1.4,2.8-6.7,2.7c-0.4,0-0.8,0-1.2,0c-0.9-1.7-1.3-5.7-1.4-7.3
			c0.8,0.1,1.4,0.1,1.8,0C116.1,142.8,122.9,143.1,122.9,143.1z"/>
		<path class="st11" d="M115.5,99.9c0,0,1.8-4.1,1.9-4.5c0.1-0.4,0.4,0.7,5-0.9C127,92.8,131,90,131,90s3.7,3.8,4.5,4.1
			c0.8,0.3-8,10.3-15.7,10.8C112,105.3,115.5,99.9,115.5,99.9z"/>
		<path d="M124.4,71.9c0,1-0.4,1.8-1,1.8c-0.6,0-1-0.8-1-1.8c0-1,0.4-1.8,1-1.8C123.9,70.1,124.4,70.9,124.4,71.9z"/>
		<path d="M112.9,72.2c0,0.9-0.4,1.6-0.9,1.6c-0.5,0-0.9-0.7-0.9-1.6s0.4-1.6,0.9-1.6C112.5,70.6,112.9,71.4,112.9,72.2z"/>
		<path class="st19" d="M114.8,75.6c-0.2-0.1-0.4-0.1-0.7-0.1c-0.3,0-0.5-0.1-0.7-0.1c-0.1,0-0.2,0-0.2,0c0.6-1.7,1.2-4,1.7-2.9
			C115.2,73.4,115,74.7,114.8,75.6z"/>
		<path d="M118,69.4c0,0,1.7-1.5,3.9-1.4s3.2,1.1,3.5,0.6s-1.9-1.6-4.1-1.4C119.2,67.3,118,68.7,118,69.4z"/>
		<path d="M108.8,70.5c0,0,1.1-1.5,2.6-1.4c1.5,0.1,2.1,1.1,2.3,0.6c0.2-0.6-1.2-1.6-2.7-1.4C109.5,68.4,108.7,69.8,108.8,70.5z"/>
	</g>
	<g>
		<path class="st16" d="M306.9,340.3c0,0-0.6,9.5,0,12.9c0.6,3.4,5.3,7.8,7.2,11.5c1.9,3.7-4,4.6-12.2,4.6s-10.9-2.2-12.1-4.3
			c-1.1-2.2,3.6-28.7,3.6-28.7L306.9,340.3z"/>
		<path class="st18" d="M361.6,104.8c0,0,11.5,23.6,14.9,29.9c3.4,6.3-15.1,23-15.1,23s-4.2,8.9-6.2,10.9c-2,2-5.3,1.3-5.3,1.3
			s-2.3-11.2-2.9-12.1c-0.6-0.9,3-2.3,3-2.3s-1.1-2,0.9-3c2-1,6-1.9,6-1.9s7.3-12.1,7.3-13.8c0-1.7-13.8-23.3-13.8-23.3L361.6,104.8
			z"/>
		<path class="st15" d="M345.2,78.5c0,0,9.5,10.8,19.2,25.1c0,0-7.5,11.5-19,11.5S345.2,78.5,345.2,78.5z"/>
		<path class="st16" d="M326.4,340.3c0,0-0.1,17.4-0.1,20.1c0,2.7,8.3,4.6,13.8,4.6c5.5,0,9.8,1,15.9,1c6.2,0,6.5-2.9,5.6-4.7
			c-0.9-1.9-16.2-6.5-18.2-10.6c-2-4.2-1.1-11.3-1.1-11.3L326.4,340.3z"/>
		<path class="st20" d="M350.3,163.3c0,0-0.4,70.7-2.6,90c-2.2,19.4-4.3,86.6-4.3,87.9c0,0.8-6.4,0.6-11.5,0.4
			c-3.6-0.2-6.6-0.4-6.6-0.4s-1.7-35.8-1.7-49.5v-41.8c0-6.3,1.6-32.3,1.7-34c-0.1,0.9-1,9.5-2.4,21.1c-2.6,22.3-6.6,55.6-8.8,65.9
			c-3.4,15.9-4.3,37.9-4.3,37.9h-18.5c0,0-0.4-90.9-0.4-105.1c0-14.2,3.9-43.1,3.9-43.1l6.9-26.3L350.3,163.3z"/>
		<path class="st15" d="M298.8,170.9c0,0,22.4,6.2,35.8,3.9c13.4-2.4,15.9-7.1,15.9-7.1l0.2-3.2l-51.9,2.2V170.9z"/>
		<path class="st7" d="M316.9,65.7c0,0-4.7,4.2-10.2,4.7c-5.5,0.6-7,2-11.8,4.2s8.3,47,8.8,51.8c0.6,4.9-5.6,29.3-4,37.8
			c1.6,8.5,36.3,5.9,43.2,4.9c6.9-1,10.6-4.6,10.6-4.6s-8-40.4-6.2-47c1.9-6.6,5.7-17.1,5.2-22.5c-0.6-5.5-6.5-15.8-7.3-16.5
			c-0.9-0.7-10.1-4.7-11.5-6.2c-1.4-1.4-1.7-2.6-4.6-4C326.3,66.8,316.9,65.7,316.9,65.7z"/>
		<path class="st18" d="M294.7,112.8l-10.1,22.1c0,0,13.5,17.8,17.2,22.1s7.8,5.7,9.5,8.3c1.7,2.6-0.6,7.5-0.9,8.6
			c-0.3,1.1-4.3,5.5-4.3,5.5s-9.2-4.3-9.8-5.7c-0.6-1.4-3.4-8-3.4-8s-21.3-20.1-24.4-26.7c-3.2-6.6,12.6-38.2,12.6-38.2L294.7,112.8
			z"/>
		<path class="st15" d="M295.5,74c0,0,3,2.8,5.8,14.6c2.8,11.8-5.6,31-5.6,31l-18.3-16.8C277.5,102.8,284.3,80.6,295.5,74z"/>
		<path class="st18" d="M339.7,50.8c0,3.1-3.3,9.3-5.3,11.4c-1.9,2.2-3.7,2.1-3.7,2.1s-0.1,1.9,0.1,3.8c0.1,1.2,0.3,2.3,0.7,2.9
			c1.1,1.6-0.7,7.9-3,8.3c-2.3,0.4-10.3-7-11.8-8.7c-1.5-1.7,0.8-3.9,0.1-9.8c-0.6-5.9-1.1-7.5-1.1-7.5s-3.3,0.6-4.5-2.9
			c-1.2-3.6-1.2-6,0.7-7.2c1.8-1.2,3.1-0.1,3.1-0.1s-1.6-4.3,4.3-8c7.2-4.5,18-1.6,18-1.6s1.1,0.7,1.6,6.9
			C339.4,46.5,339.7,47.7,339.7,50.8z"/>
		<path d="M314.9,43c0,0,1,2.7,1.3,3.9c0.3,1.2,3.5-5.5,2.5-9.3c-1-3.8-5.9-1.2-7.4,1.3c-1.5,2.5-0.6,4.8-0.6,4.8
			S313.4,42.2,314.9,43z"/>
		<path class="st19" d="M332,46c0.3-0.1,0.6-0.2,0.8-0.2c0.3-0.1,0.6-0.1,0.9-0.1c0.1,0,0.2,0,0.3,0c-0.8-2.1-1.7-4.9-2.3-3.5
			C331.4,43.3,331.7,44.9,332,46z"/>
		<path class="st7" d="M310.7,43c0,0,4.3-6.1,14.3-8.1c10-2,13.2,0.6,13.2,0.6s-0.5-4.3-3.2-8.5c-2.6-4.1-13.2-6.6-21.4-1.8
			C305.5,30.1,310.7,43,310.7,43z"/>
		<path class="st7" d="M339.7,46.9c0,0-2.5-1.7-7.9-1.6c-5.4,0.1-10.9,2.5-12.2,3.3c-1.3,0.9,0.1,6.1,2.5,9.6
			c2.4,3.6,9,5.3,10.8,5.1c1.8-0.2,6.6-7.3,6.9-9.4C340.2,51.8,339.7,46.9,339.7,46.9z"/>
		<polygon class="st11" points="315.6,44.7 320.5,48.8 319.7,49.8 316.1,46.5 		"/>
		<path class="st11" d="M322.7,57.7c0,0-4.4,0.2-7-4.4l0.1,1.5c0,0,1.1,2.2,3.4,3.1c2.4,0.9,3.4,0.6,3.4,0.6L322.7,57.7z"/>
		<path d="M323.4,42c0,1,0.5,1.7,1,1.7c0.5,0,0.9-0.8,0.9-1.8c0-1-0.5-1.7-1-1.7C323.8,40.2,323.4,41,323.4,42z"/>
		<path d="M334.5,41.7c0,0.8,0.5,1.5,0.9,1.5c0.5,0,0.8-0.7,0.8-1.6c0-0.8-0.5-1.5-0.9-1.5C334.8,40.2,334.5,40.9,334.5,41.7z"/>
		<path d="M329.4,39.2c0,0-1.7-1.3-3.8-1.2c-2.2,0.2-3,1.3-3.4,0.7c-0.4-0.5,1.7-1.6,3.9-1.6C328.2,37.3,329.4,38.6,329.4,39.2z"/>
		<path d="M338.4,39.8c0,0-1.1-1.4-2.6-1.2c-1.4,0.1-2,1.2-2.2,0.7c-0.3-0.5,1.1-1.6,2.5-1.5C337.6,37.8,338.4,39.1,338.4,39.8z"/>
		<path class="st19" d="M330.8,68.1c-1.8-0.5-4.9-1.4-7.8-2.8c-4.4-2.2-6.7-8-3-5.6c3.7,2.4,10.7,4.6,10.7,4.6
			S330.6,66.3,330.8,68.1z"/>
		<path class="st17" d="M346.6,107.6c0,0-26.3-1.7-33.8,2.8C305.2,114.9,342.5,110.8,346.6,107.6z"/>
		<path class="st15" d="M331.2,336.5c0.2,1.3,0.5,3.6,0.7,5.1c-3.6-0.2-6.6-0.4-6.6-0.4s-1.7-35.8-1.7-49.5v-41.8
			c0-6.3,1.6-32.3,1.7-34c-0.1,0.9-1,9.5-2.4,21.1c0.5-9.2,1.3-16.6,2.4-21.1c0,0,0,0,0-0.1c0,0,1.9-13.8,6.7-20.4
			c4.9-6.6-2.6,11.5-2.3,24.1c0.3,12.6,0.9,26.4,0.3,43.9c-0.6,17.5-1.7,35-0.9,47.4C330,323.3,330.9,334.5,331.2,336.5z"/>
		<path class="st21" d="M316.6,65.5c0,0-2.5,0.2-1.9,6.7c0.6,6.5,3.7,12.9,6.5,13.5c0,0-0.1,1.1-0.4,1.4c-0.3,0.2-3.2-1.6-4.9-4.6
			c-1.7-3-2.5-8.5-2.5-10.8s-0.2-3.7,0.4-5c0.6-1.4,1.6-2.2,3-2.6C316.8,64,316.7,65.1,316.6,65.5z"/>
		<path class="st21" d="M330.7,67.3c0,0,1.9,0.1,4.2,3.2c2.3,3.1,5.7,10.1,5.8,13.1c0.1,3-1.4,3.6-1.4,3.6l-0.9-0.9
			c0,0,1.1,0.1,0.4-3.9c-0.7-4.1-4.7-10.6-5.8-12.1c-1.1-1.4-2.2-1.7-2.2-1.7L330.7,67.3z"/>
		<path class="st22" d="M340.4,86.2c0.3,1.4-0.5,2.7-1.7,2.9c-1.2,0.2-2.3-0.7-2.6-2.1c-0.3-1.4,0.5-2.7,1.7-2.9
			C338.9,83.9,340.1,84.8,340.4,86.2z"/>
		<path class="st23" d="M339.8,86.4c0.3,1.6-0.6,3.2-2,3.5c-1.4,0.3-2.8-0.8-3.1-2.5c-0.3-1.6,0.6-3.2,2-3.5
			C338.1,83.7,339.5,84.8,339.8,86.4z"/>
		<path class="st22" d="M339.1,86.6c0.3,1.4-0.5,2.7-1.7,2.9c-1.2,0.2-2.3-0.7-2.6-2.1c-0.3-1.4,0.5-2.7,1.7-2.9
			C337.6,84.3,338.8,85.2,339.1,86.6z"/>
		<path class="st23" d="M324.9,92.5c0,0,1.5,1.1,3.4,1.7s2.3-0.6,2.8-0.6c0.4,0,1,0,1.3,0.3c0.3,0.3-0.9,0.5-1,0.5
			c-0.1,0-1.3,0.9-2.3,0.9c-1.1,0-4-1.6-4-1.6L324.9,92.5z"/>
		<path class="st23" d="M326.1,87.5c0,0,1.8,0.4,3.6,1.4s1.1,2.2,1.4,2.5c0.3,0.3,0.7,0.7,1.1,0.7c0.4,0-0.2-1-0.3-1.1
			c-0.1-0.1-0.1-1.6-0.9-2.4s-3.9-1.9-3.9-1.9L326.1,87.5z"/>
		<path class="st21" d="M320.6,84.6c0,0-1.4,3-0.5,4.8s5,4.8,5,4.8l0.3-1.4c0,0-4.5-3.3-4.5-4.4c0-1.1,0.3-2.5,0.7-2.6
			c0.4-0.1,5.8,2.5,5.8,2.5l0.2-1.3C327.7,87,321.9,84.5,320.6,84.6z"/>
	</g>
	<g>
		<path class="st3" d="M201.2,328.6c0,0,3,20.9,2.2,25c-0.9,4.1-3,11.8-3.4,14.2s1.7,6.5,10.6,6.5c8.8,0,16.6-0.6,19.8-2.6
			c3.2-1.9-7.1-23.7-7.3-26.3c-0.2-2.6-1.5-19.6-1.5-19.6L201.2,328.6z"/>
		<path class="st24" d="M197.7,321.4c0,0,0.7,6.6,1.3,8.1c0.6,1.5,2.7,2,10.7,1.4c8-0.6,12.9-3,13.5-4.1c0.6-1.1,0.3-6.6,0.3-6.6
			S203.4,325.4,197.7,321.4z"/>
		<path class="st3" d="M166.7,329c0,0-2,15.2-1.4,20.7c0.6,5.5,0.1,9.2-1.1,11.5c-1.3,2.3-14.2,2.9-18.2,2.7
			c-4-0.1-14.1,2.6-20.2,0.7c-6.2-1.9-8.2-6.2-0.3-11.5c7.9-5.3,14.2-1.9,16.9-6.6c2.7-4.7,3.2-18,3.2-18L166.7,329z"/>
		<path class="st8" d="M156.5,87.4l-1.9,32.6l-1,17.1l-11.2,15.1c0,0,4.2,7.8,5.9,15.1c0.9,3.8,1.1,7.5-0.4,9.9
			c-4.3,6.7-13.2,8.8-15.5,7.2c-2.3-1.6-10.6-10.8-12.1-17.4c-1.4-6.6,0.4-8.6-0.1-10.6c-0.6-2,0-6.3,1.6-8.8
			c1.6-2.4,6.3-18.7,10.5-24.6c4.2-5.9,13.9-23.8,16.8-28.7C151.9,89.4,156.5,87.4,156.5,87.4z"/>
		<path class="st6" d="M153.6,137.1l-11.2,15.1c0,0,4.2,7.8,5.9,15.1c-3.2,3.2-8.2,4.6-8.6,3.7c-0.4-1,0.7-4.2,0.6-6.5
			c-0.1-2.3,0.1-4.9-0.9-6.3c-1-1.4-6,2.2-5.6-1.6c0.4-3.7,7.6-2.6,2.2-3.7c-5.5-1.1-10.5,2.9-8.3,0.1c2.2-2.7,7.5-2.7,8.6-3.7
			c1.2-1-1.3-1.7,0.6-4.2c1.9-2.4,3-1.9,2.4-9.2c-0.6-7.3,10.1-17.1,10.1-17.1l5.3,1.1L153.6,137.1z"/>
		<path class="st15" d="M145.3,168.4c0,0-6.6,2.2-9.6,7.3c-3,5.2-1.1,8.2-0.7,8.6c0.4,0.4,3.6,4.6,5,5.7c1.4,1.1,0.4,6.6,1.6,10.1
			c1.1,3.4,0.3,4.3-0.6,4c-0.9-0.3-0.9-4.5-2.4-4.2s-1.3,1.7-1.3,4s2.6,4.9,4.6,5.3c2,0.4,3.9-1.7,4.5-2.3c0.6-0.6,4.9,0.4,6-0.9
			c1.1-1.3,3.4-3.4,4.7-3.6c1.3-0.1,3.4-1.6,3.9-3c0.4-1.4-0.4-4.5-0.4-6.7s-4.6-7.6-5.6-10.3C153.9,179.8,149.5,171.7,145.3,168.4z
			"/>
		<path class="st5" d="M228,285.7c-2,29-4.3,31-5.5,35.5c-1.1,4.6-17.1,5.5-23.7,3.2c-6.6-2.3-8.8-15.6-11.4-30.8
			c-2.6-15.2-1.4-23.8-2.2-36.4c-0.9-12.5-5.7-32.4-5.5-38.6c-0.3,5.7-2.4,47.9-5.2,59c-3.2,12.6-2,33.5-3.7,41.4
			c-1,4.4-4.3,7.3-8.2,8.8c-3.1,1.2-6.5,1.4-9.5,0.9c-3-0.6-5.9-2.2-8.1-4.8c-2.7-3.1-4.4-7.8-4.4-14.2v-0.2
			c0-11.6-0.6-21.6-0.6-26.8c0-5.2,2.8-34.5,2.8-43.1c0-8.6,0.4-35.5,2.4-49.1c1.9-13.6-1.3-17.9-1.3-26.9c0-9,4.3-35.5,4.3-46.3
			s1.1-22.8,6.2-28.9c5.2-6,4.6-5.1,10.3-9.5c0,0-2.9-5.2-2.7-10.3c0.2-5.2,1.1-18.3,0.7-22.7C162.6,41.7,170,32,181.1,32
			c11.1,0,13.8,6,16.6,13.9c2.8,7.9,1.9,13.1,4.1,18.1c2.2,5-0.2,9-0.2,9s14,3.2,20.8,9.3c6.8,6,3.1,44.9,3.1,44.9s-4,33.9-7.5,41.6
			c-0.2,0.5-0.4,1-0.5,1.5c-2.6,9.5,4.3,29.8,4.3,29.8S230,256.7,228,285.7z"/>
		<path class="st6" d="M228,285.7c-2,29-4.3,31-5.5,35.5c-1.1,4.6-17.1,5.5-23.7,3.2c-6.6-2.3-8.8-15.6-11.4-30.8
			c-2.6-15.2-1.4-23.8-2.2-36.4c-0.9-12.5-5.7-32.4-5.5-38.6c-0.3,5.7-2.4,47.9-5.2,59c-3.2,12.6-2,33.5-3.7,41.4
			c-1,4.4-4.3,7.3-8.2,8.8c-0.6,0-1.1,0-1.6,0c-4.8,0.2-11-1.6-16-3.9c-2.7-3.1-4.4-7.8-4.4-14.2v-0.2c0.3,0.3,0.6,0.7,0.9,1.3
			c2,5.2,8.9,7.8,8.9,5.5c0-2.3,3.2-2,6.6,0c3.4,2,6.3-0.9,7.5-2.6c1.1-1.7,2.6-10.1,3.7-16.1c1.1-6-2.3-5.2-2.6-8.3
			c-0.3-3.2,3.4-4.9,3.2-14.1c-0.3-9.2,1.7-22.4,1.7-31.3c0-8.9,4.3-20.7,3.2-23.3c-1.1-2.6-10.3-11.8-7.8-11.8
			c2.6,0,9.5,5.7,14.4,5.2c4.9-0.6,11.5-8,9.5-3.7c-2,4.3-5.5,8.3-6.6,10.9c-1.1,2.6,2.6,11.8,4.3,27.6c1.7,15.8,2.6,27.9,2.9,38.2
			c0.3,10.3,4,26.7,6.9,31.9c2.9,5.2,2.3-4.3,4.3-2c2,2.3,4,4.6,6.9,4.3c2.9-0.3-1.4-4.9,1.4-5.2c2.9-0.3,5.7,6.6,7.2,0.6
			c1.4-6,2-24.7,0.6-34.2c-1.4-9.5-1.4-13.2,0.9-31.6c2.3-18.4-8.3-33.9-12.6-48.5c-4.3-14.6-6.6-31.3-6.6-31.3
			c7.3-3.6,13.3-3.2,18.1-0.8c-2.6,9.5,4.3,29.8,4.3,29.8S230,256.7,228,285.7z"/>
		<path class="st8" d="M230.8,107.8c-0.4,3.8-1,7.8-2,12c-1.5,6.8-3.7,14.3-7.1,22.7c-5.4,13.6-9,34-21.8,31
			c-9.8-2.3-22.8-11.8-31-18.2c-2.5-1.9-4.5-3.6-5.9-4.6c-6-4.7-12.9-8.8-10.1-15.7c2.8-6.9,9.3-15,14-14.4
			c14.4,1.7,22.9,14.7,23.1,13.2c0.2-1.5,2.1-10.3,4.5-16.8c2.4-6.5,2.6,1.9,4.5-18.4c1.9-20.2,12.1-22.6,12.1-22.6
			C221.9,78.3,231.8,97.9,230.8,107.8z"/>
		<path class="st6" d="M228.8,119.8c-1.5,6.8-3.7,14.3-7.1,22.7c-5.4,13.6-9,34-21.8,31c-9.8-2.3-22.8-11.8-31-18.2
			c1.6,0.2,5,1.3,10.9,5.9c9.5,7.3,14.2,9,14.6,5c0.4-4.1-5.2-17.7-5.4-25.2c-0.2-7.5,1.7-1.1,6-4.7c4.3-3.7,5-14.2,12.9-29.7
			s11.4-22.4,15.7-9.5C225.9,103.1,227.6,112,228.8,119.8z"/>
		<path class="st25" d="M184.9,67c-1.8,5.7-10.7,10.1-13.7,9.3c-3-0.9-6.5-5.5-6.8-11.3c-0.1-2.1-0.2-4.7-0.1-7.3v0
			c0.1-4.4,0.5-8.9,1.5-11.3c1.1-2.5,4.5-3.7,9-3.4c11.1,0.9,10.2,7.7,10.7,12.9c0.2,2.3,0.5,3.7,0.6,4.9
			C186.1,62.4,185.9,63.9,184.9,67z"/>
		<path class="st7" d="M184.9,67c-1.7,5.4-9.7,9.6-13.1,9.4c-0.2,0-0.4,0-0.6-0.1c-3-0.9-6.5-5.5-6.8-11.3c-0.1-2.1-0.2-4.7-0.1-7.3
			v0c0,0,0,0,0,0c1.1-2,2.7-3.6,4.5-3.7c2.6-0.1,11.4,4,11.4,4s3.9,1.5,5.8,2.8C186.1,62.4,185.9,63.9,184.9,67z"/>
		<path class="st26" d="M172,75.5c-0.1,0.3-0.1,0.6-0.2,0.8c-0.2,0-0.4,0-0.6-0.1c-3-0.9-6.5-5.5-6.8-11.3c-0.1-2.1-0.2-4.7-0.1-7.3
			v0c0,0,0,0,0,0c1.5-1.6,4.9-2,4.9-2s-1.2,4.8-0.4,6.1c0.8,1.3,3,0.8,3.2,1.8c0.2,1-1.1,1.1-2.1,1.1c-1,0.1-1.2,2.7-0.3,5.5
			C170.4,73,172.3,73.5,172,75.5z"/>
		<path class="st26" d="M173.7,59.6c0,0,6.7,2.9,8.6,3.6c1.9,0.7,2.7-0.2-0.4-1.9c-3.2-1.7-6-3.5-8.3-4.1c-2.3-0.6-3.1-1-3.6-0.1
			C169.5,58,173.7,59.6,173.7,59.6z"/>
		<path class="st12" d="M188.5,49.7c0,0,9.9,1.3,10.9,2.1c1,0.8,0.5,2.9,0.2,3.4c-0.4,0.5-10.8-2.1-11.5-2.7
			C187.3,51.9,188.5,49.7,188.5,49.7z"/>
		<path class="st27" d="M161.1,53.4c0,0-1.1-5.1,3-6.2c4.1-1.1,16.8-3.1,21.2-1.1c4.5,2,4.1,6.6,3.3,9.2c-0.8,2.6-10.1,5.2-14.5,2.7
			c-4.3-2.4-4.1-2.3-5.7-1.4c-1.5,0.9-2.8,2.9-5,3C161.4,59.7,161.1,53.4,161.1,53.4z"/>
		<path class="st26" d="M173.1,74.6c0,0,7.5-1.6,9.2-5.3c1.7-3.7-0.9,0.1-4.7,1.7c-3.8,1.6-7.2,1.4-7.2,1.4l0.5,2.2H173.1z"/>
		<path class="st28" d="M180.9,57.6c-3.7,1.1-7.2-1.8-10.1-2.6c-0.2-0.1-0.4-0.1-0.7-0.1c-0.3,0-0.5-0.1-0.7-0.1c-0.1,0-0.2,0-0.2,0
			c-0.3,0-0.6,0.1-0.9,0.2c-2.4,0.7-3.2,3.5-4.8,2.9c-1.8-0.8-1.2-7.3-1.2-7.3c-0.1-0.2,0.3-1.5,1.2-1.9c0.9-0.4,15.9-2.3,18.4-2.2
			c2.5,0.1,3.9,2.1,4.2,5.5C186.5,55.3,185.3,56.3,180.9,57.6z"/>
		<path class="st28" d="M200.2,73.3c0,0-10.9,5.2-20.5,6.9c-9.6,1.7-14.1-0.6-14.1-0.6l-0.9,1.7c0,0,1,2,11.1,1.8
			c10.1-0.2,26.5-8.5,26.5-8.5L200.2,73.3z"/>
		<path class="st24" d="M143.6,320.8c0,0-0.1,6.6,0.3,8.2c0.4,1.6,2.4,2.3,10.5,2.7c8,0.4,13.2-1.3,13.9-2.3c0.7-1,1.1-6.5,1.1-6.5
			S148.8,325.5,143.6,320.8z"/>
		<path class="st29" d="M180.4,52.4c0,1-0.4,1.8-1,1.8c-0.6,0-1-0.8-1-1.8c0-1,0.4-1.8,1-1.8C179.9,50.6,180.4,51.4,180.4,52.4z"/>
		<ellipse class="st29" cx="168" cy="52.7" rx="0.9" ry="1.6"/>
		<path class="st30" d="M170.8,55c-0.2-0.1-0.4-0.1-0.7-0.1c-0.3,0-0.5-0.1-0.7-0.1c-0.1,0-0.2,0-0.2,0c0.6-1.7,1.2-4,1.7-2.9
			C171.2,52.8,171,54.1,170.8,55z"/>
		<path class="st30" d="M174,49.9c0,0,1.7-1.5,3.9-1.4c2.3,0.1,3.2,1.1,3.5,0.6c0.4-0.6-1.9-1.6-4.1-1.4
			C175.1,47.8,174,49.2,174,49.9z"/>
		<path class="st30" d="M164.8,51c0,0,1.1-1.5,2.6-1.4c1.5,0.1,2.1,1.1,2.3,0.6c0.2-0.6-1.2-1.6-2.7-1.4
			C165.5,48.9,164.7,50.3,164.8,51z"/>
		<path class="st6" d="M154.1,137.6c0,0,0,1.7,0.9,3.4c0.9,1.7,1.6-0.3,2,0.9c0.4,1.2,2.2,2.2,2.8,1.4c0.6-0.8-0.4-2,1.6-2
			c2,0,4.4,1.7,5.2-0.5c0.8-2.3-0.8-2.8,0.5-3.6c1.3-0.8,2.7-0.8,2.7-2c0-1.3-1.9-1-0.1-3.4c1.8-2.5,3.2-2.4,2.5-4
			c-0.8-1.6-2.3,0-2-1.3c0.2-1.3,2.3-1.2,2.5-2.3c0.2-1.1-4.3-1.2-4.5-1.8c-0.2-0.6,0.2-2.5-3.1-0.4
			C161.6,124,154.1,137.6,154.1,137.6z"/>
		<path class="st7" d="M162.9,121.5c0,0,3.6,0.5,5,1.6c1.4,1.1,1.3,7.9-1.5,11.8c-2.8,4-5.7,6.3-7.5,6.3c-1.9,0-5.6-3.6-7.8-5
			c-2.3-1.4-4.2-1-6.4-4.1c0,0-5,0-6.5-1.3c-1.4-1.3-1.1-4.2,0-5.3c1.1-1.1-0.7-4,0.4-6.4c1.1-2.4,2.6-1.8,2.8-3
			c0.3-1.2,0.8-4,2.2-4.9c1.4-0.8,2.6-0.8,3.2-1.5c0.7-0.7,3.8,0.2,5.4,0.4C155.4,110.7,162.9,121.5,162.9,121.5z"/>
		<path class="st6" d="M162.9,142.9c0,0,3.8,3.1,3.8,5C166.7,149.7,162,146.4,162.9,142.9z"/>
		<path class="st6" d="M172.7,126.5c0,0,3.3,0.6,6,3c2.7,2.4,4.3,4.4,4.6,3.1C183.7,131.4,180.7,125.5,172.7,126.5z"/>
		<path class="st28" d="M149.1,176.3c0,0,8.6,3.4,26.5,3.4s23.3-1.5,23.3-1.5l0.4,5.2c0,0-13.5,4.3-30.3,2.8
			c-16.8-1.5-20.1-4.7-20.1-4.7L149.1,176.3z"/>
		<path class="st26" d="M139.1,125.7c0,0,3.9-0.6,5.1,0.1c1.1,0.6-0.6,1.3-0.2,2.2c0.4,0.9-4.6,0.9-5.5,0.5
			C137.6,128,137.3,127.2,139.1,125.7z"/>
		<path class="st26" d="M139.4,122.2c0,0,2.7-0.7,4.4-0.5c1.7,0.2,2.5-0.7,2.8-1.8c0.3-1.1-1.4-2.4-4.4-1.4
			C139.3,119.6,139,120.1,139.4,122.2z"/>
		<path class="st26" d="M142.7,116.5c0,0,2.5,0,4,0.5c1.5,0.5,2.8-1.6,2.1-2.3c-0.7-0.7-3.6-1.4-5.1-0.7
			C142.2,114.6,142.8,115.9,142.7,116.5z"/>
		<path class="st26" d="M146.5,111c0,0,2.4,1.1,3.9,1.1c1.4,0,1.7-1.4-0.3-1.7C148.2,110.1,146.4,109.7,146.5,111z"/>
		<path class="st26" d="M152.8,115.5c0.2,0,1.2,0.5,1.7,1.8c0.4,1.3,2.2,1.4,3.2,3.9c1,2.4-3.5-1.4-4.5-2.7
			C152.3,117.2,151.6,115.4,152.8,115.5z"/>
		<path class="st26" d="M162.1,124.4c0,0-1,5.6-3.9,8.5c-2.9,2.9-0.1,3.1,2.4-0.7s3-6.6,3-8C163.7,122.7,163.1,121.2,162.1,124.4z"
			/>
	</g>
	<g>
		<path class="st15" d="M305.9,199.3c0,0,0.1,2.5,0.7,4.2c0.6,1.7,1.1,3.7,1.7,6.5c0.6,2.8-0.3,4-0.4,5.5c-0.2,1.5,0.1,2.6-1,5
			s-1.4,3.3-2.4,3.6c-1,0.2-0.9-1.8-0.4-3.2c0.5-1.4,0.6-1.8,0.3-4c-0.3-2.2,0-0.2-0.8,1.9c-0.8,2.1-1.6,5-3.2,5.3
			c-1.6,0.4-0.8-2.7-0.8-2.7s-1.3,0.2-1.5-1.2c-0.2-1.4,0.1-2.2,0.1-3.1c0,0-0.2,1.5-2.3,1.5c-2,0-0.6-1.4,0.4-2.5
			c1-1.1-0.6-2.9-1.1-6.3c-0.5-3.4-0.7-6.1,1-8C298.2,199.8,305.9,199.3,305.9,199.3z"/>
		<path class="st3" d="M243,356.1c0,0-0.5,5.8-0.8,8.6c-0.2,2.8,1,5.6,0.5,7c-0.4,1.4-5,2.9-12.3,2.9c-7.3,0-12.7-0.9-13.8-2.4
			c-1.1-1.5,3.9-10.2,5.3-12.7c1.4-2.5,0.8-5.9,4.7-8C230.7,349.6,240.9,352.4,243,356.1z"/>
		<path class="st3" d="M270.9,354.1c0,0,0.1,5.4,0.3,7c0.2,1.6-0.4,3.9,0.8,4.6c1.2,0.8,5.2,0.2,9.3,1.3c4.1,1.1,13,4.4,19.4,4.2
			c6.4-0.2,9.8-0.9,10.2-2.6c0.4-1.7-12.1-13.9-16.3-16.4c-4.2-2.5-3.4-4.1-8.7-4.3C280.6,347.7,270.9,354.1,270.9,354.1z"/>
		<path class="st4" d="M296.1,352.3c-0.2,0.1-0.4,0.1-0.6,0.1c-2.3,0.2-5.9-3-10.6-2.7c-5.2,0.3-14.4,5.5-14.4,5.5
			c-2.6-5.2-1.4-7.8-1.4-15.2c0-7.5-1.4-10.6-0.6-28.7c0.9-18.1-2.6-22.7-4-46.5c-1.4-23.8-1.4-47.7-3.7-44.5
			c-2.3,3.2-9.5,71.2-9.2,83.6c0.3,12.3-1.7,26.7-3.4,34.2c-1.7,7.5-1.7,19-2.6,20.1c-0.3,0.5-1.1,0.2-2.2-0.4
			c-1.7-0.9-4.2-2.4-6.9-3.1c-4.6-1.1-14.9,0.6-14.9,0.6c-0.6-3.4,2.3-10.6,3.2-13.2c0.9-2.6-2-9.8-2-21.8c0-12.1,3.2-35,3.2-45.7
			c0-8.5-0.6-45.7-0.8-60.1c-0.1-3.6-0.1-5.7-0.1-5.7s64.6-16.9,67.2-4.3c0.4,1.7,0.6,4,0.8,6.5c1.1,16-1.1,44.9-1.1,52.6
			c0,8.9,1.1,37.6,1.1,45.1c0,7.5,0.6,26.1,2,31C296.4,344.6,298.4,351.5,296.1,352.3z"/>
		<path class="st8" d="M291.3,70.3c0,0,2.2,1.6,2.4,3.7s-0.3,4.3,0.7,10.9c1,6.6,1.4,34.9,2.3,43.7c0.9,8.8,4.2,15.8,6.9,36
			c2.7,20.2,4.6,35.3,4.6,35.3l-12.1,1.6c0,0-7.9-64.8-9.9-83.7L291.3,70.3"/>
		<path class="st31" d="M295.5,352.4c-2.3,0.2-5.9-3-10.6-2.7c-5.2,0.3-14.4,5.5-14.4,5.5c-2.6-5.2-1.4-7.8-1.4-15.2
			c0-7.5-1.4-10.6-0.6-28.7c0.9-18.1-2.6-22.7-4-46.5c-1.4-23.8-1.4-47.7-3.7-44.5c-2.3,3.2-9.5,71.2-9.2,83.6
			c0.3,12.3-1.7,26.7-3.4,34.2c-1.7,7.5-1.7,19-2.6,20.1c-0.3,0.5-1.1,0.2-2.2-0.4c0-1.5-0.6-3.2-2.5-4.5c-4.5-3.2-13.6,0-14.8-3.7
			c-1.1-3.7,9.5-2,13.8-0.9s5.2-2.7,1-5c-4.2-2.3-8.6-4.5-8.6-6.2c0-1.7,5.6-1.7,9.5,0.3c3.9,2,3.2-5.7,4.6-13.5
			c1.4-7.8-0.6-11.2-0.7-17.5c-0.1-6.3,2.2-8.9,3-14.8c0.9-5.9-0.7-3.2-0.4-11.5c0.3-8.3,0.9-23.8,3.2-33.6
			c2.3-9.8,0.6-21.8,0.1-24.3c-0.4-2.4-18.4-3.3-26.4-8c0,0,0,0-0.1,0c-0.1-3.6-0.1-5.7-0.1-5.7s64.6-16.9,67.2-4.3
			c0.4,1.7,0.6,4,0.8,6.5c-9.1,10.4-19.4,4.4-22.4,10.4c-4.7,9.5-3.3,6.9-2,15.9c1.3,9-1.7,31,2.2,40.8c3.9,9.8,4,19.4,3.7,25.4
			c-0.3,6-3,16.7-1.6,21.5c1.4,4.9-0.1,13.5,2.2,14.5c2.3,1,8.8,0.4,10.1,2.9c1.3,2.4-6.8,0.1-8.8,3.4c-2,3.3,2.9,0.7,9.7,2.1
			C290.5,348.9,293.9,351.1,295.5,352.4z"/>
		<path class="st5" d="M298.4,204.4c0,2.6-26.4,14.4-28.1,12.9c-1.7-1.4-4.3-7.2-4.3-7.2s-1.2,6.9-2.9,6.9s-42.2-4.9-42.8-6.9
			c-0.1-0.2-0.1-1.4-0.1-3.4c0.1-16.4,2.5-85.9,1.5-90.5c-0.2-0.8-0.5-2.6-0.9-4.9c-2.1-13-6.5-45-6-46.5c0.6-1.7,30.6-6.3,30.6-6.3
			l23.4,0.6c0,0,21.3,8.3,22.7,11.4c1.4,3.2-3.4,42.5-3.4,48.8S298.4,201.8,298.4,204.4z"/>
		<path class="st7" d="M245.4,58.6l15.7,43.8c0,0,6-31.2,7.7-43.2l-7,4.1l-8.5,0.1L245.4,58.6z"/>
		<path class="st8" d="M220.2,206.8c0.1-16.4,2.5-85.9,1.5-90.5c-0.2-0.8-0.5-2.6-0.9-4.9l3.2-10.9c0,0,2.2,14.4,1.5,26.1
			c-0.6,11.6-1.7,16.4,0.2,20.9c1.9,4.5-0.6,5-1.1,7.5c-0.4,2.6,1.7,8.8,1.7,13.4c0,4.5,0.2,40.7,0.2,40.7L220.2,206.8z"/>
		<path class="st32" d="M274.7,32.3c-0.6,3.7-2.9,5.4-2.9,5.4c-1.7,9.9-6,12.6-6,12.6l0.1,2.8l0.4,7.3c0,0-2.9,3.2-7.8,3
			s-10.7-4.7-10.7-4.7l0.4-5.1l0.3-4.1c-3.6-3.1-5.4-10.1-5.4-10.1c-4.9-2.4-4.1-7.9-4.1-7.9c1.1-4.3,3.7-3.7,3.7-3.7
			c1.3-17,16.5-18.3,23.4-13.9c6.9,4.4,6.5,12.7,6.5,12.7C273.9,27,275.3,28.6,274.7,32.3z"/>
		<path class="st11" d="M248.2,54.1l-2.8,4.5l8.5,10.7l5.4-6C259.3,63.3,253.8,60.4,248.2,54.1z"/>
		<path class="st7" d="M233,199.3C233,199.3,233,199.3,233,199.3c0,1.1-1.6,0.8-4.2-2.8c-3.2-4.4-1.5,2.6-0.2,5.5c0,0,0,0,0,0
			c0.1,0.2,0.2,0.4,0.3,0.6c1.3,2.4,3.6,6.1,3.4,8.5c-0.1,1.2-0.8,0.6-1.7-0.4l0,0c-0.9-1.1-2.1-2.6-2.9-3.4
			c-0.3-0.3-0.6-0.6-0.8-0.9c-0.8-1.1-0.8-2.1-1.5-3c-0.9-1.1-1.1,1.9,0.7,4.5c1.7,2.6,3.9,3.3,3.7,4.6c-0.2,1.3-4.1,0.1-5.2-1.4
			c0,0-1.7,0.9-3.4-0.5c-1.7-1.4-2-2.7-2-2.7s-2.8-0.5-3-1.6c0-0.2-0.2-0.6-0.4-1.3c-0.7-1.9-2.1-5.5-2.6-8.9
			c-0.2-1.1-0.3-2.2-0.3-3.2c0-0.5,0.1-1,0.4-1.5c2-4.1,11.4-6.6,11.4-6.6s0.1,0.5,0.4,1.3c0.1,0.3,0.3,0.6,0.5,0.9
			c0.6,1,1.5,2.2,3,3.3c3.3,2.5,2.5,5.2,4,7.4C232.8,198.5,233,199,233,199.3z"/>
		<path class="st17" d="M225.5,187.2c-0.9,0.8-3,2.5-6.1,4.5c-2.9,2-5.2,3.7-6.3,4.5c-0.2-1.1-0.3-2.2-0.3-3.2c0-0.5,0.1-1,0.4-1.5
			l11.9-5.3C225.1,186.5,225.3,186.9,225.5,187.2z"/>
		<path class="st11" d="M266,54.7l2.8,4.5l-4.9,10.3l-5.4-6C258.5,63.4,260.4,61,266,54.7z"/>
		<path class="st12" d="M254.8,27c0,0,1.9,2.6,2.4,6c0.5,3.3-2,3.4-2.3,3.4c-0.3,0,0.4-4.7,0.1-6.2S254.8,27,254.8,27z"/>
		<path class="st5" d="M228.6,185.2l-1.2,0.7l-16,8.8c0,0-18.1-56.6-17.2-62c0.9-5.5,19-64.3,19-64.3c0.4-3.4,1.1-3.4,1.7-3.4
			c0.6-0.1,3.5,3.5,6.3,10.3c2.8,6.8,7.3,24.8,5.1,29.4c-0.7,1.4-2.1,4.8-3.6,8.8v0c-3.5,8.9-7.8,21.1-7.7,22.3
			c0.2,1.7-0.8,3.1-1,4.7c-0.2,1.6,1.2,0.7,1,3.8C214.7,147.2,228.6,185.2,228.6,185.2z"/>
		<path class="st8" d="M241.4,60.5c0,0-3.6,10.2-2.7,12.1c0.9,1.9,6.8,2.7,9.5,4.6c2.7,1.9-4.2,4.3-2.7,10.2
			c1.5,5.9,16.3,26.1,17.1,26.4c0.9,0.3-0.3-7.8-1.7-13.9c-1.4-6.1-15.5-41.5-15.5-41.5l-3.4,0.5L241.4,60.5z"/>
		<path class="st8" d="M261.2,107.1c0,0,6.7-9.6,8.8-15.8c2.2-6.2-0.8-8.8,0-11.7c0.8-2.9,5.3-2.6,4.7-8.4
			c-0.5-5.8-2.7-10.9-2.7-10.9l-3.2-1.1l-7.7,43.2L261.2,107.1z"/>
		<path class="st12" d="M265.9,53.1c-2,1.5-5.9,3.9-10.1,4.1c-3.4,0.1-6-1.9-7.6-3.6l0.3-4.1c0,0,4.9,4.6,9.7,4.1
			c4.7-0.5,7.5-3.2,7.5-3.2L265.9,53.1z"/>
		<path class="st8" d="M228.6,185.2l-1.2,0.7c-1.8-1.8-7.8-15.9-9.9-25.6c-2.2-9.9-6.7-12.1-5.2-15.8c1.4-3.7,0.1-3.2-1.4-3.2
			c-1.6,0-5.7,3.6-4.7,0.9c1-2.7,7.3-3.7,4.4-4.2c-2.9-0.4-8,1.7-7.2-0.4c0.9-2.2,5-3.2,7.2-3c2.2,0.1,3-8,4.6-15.9
			c1.6-7.9,3.3-8.8,3-18.4c-0.3-9.6-2.6-11.6-4.5-16.1c-1.9-4.5-0.3-8.2,0.3-4.9c0.6,3.3,4.7,6.5,3.3,2.2c-1.4-4.3-3-13.5-2.3-14.1
			c0.7-0.6,1.3,0,5.5,11.3c4.3,11.8,6.6,18.2,6,24.2c-0.3,2.8-3.9,10.6-3.9,10.6c-3.5,8.9-7.8,21.1-7.7,22.3c0.2,1.7-0.8,3.1-1,4.7
			c-0.2,1.6,1.2,0.7,1,3.8C214.7,147.2,228.6,185.2,228.6,185.2z"/>
		<path class="st8" d="M262.6,113.9c0,0,2.6,100.3,3.4,97.3c0.9-3-0.9-12.1,0.4-43.3c1.3-31.2-1.9-56-4.1-58.6
			C260.2,106.7,262.6,113.9,262.6,113.9z"/>
		<path class="st8" d="M223,173.2c0,0-9.9,2.4-14.3,8.9c0,0-1.7,0.3,1.4-3.9c3.1-4.2,11.9-6.5,11.9-6.5L223,173.2z"/>
		<path class="st8" d="M231.8,170.2c0,0,22.7,3.7,23.7,4.2c1,0.4-0.4,29.9-8,33c-7.6,3.2-13.2-0.3-13.2-0.3s8.6,0.7,12.9-3.9
			c4.3-4.6,6.6-23,5.9-25.1c-0.7-2.2-23.7-7.5-23.7-7.5S229.2,170,231.8,170.2z"/>
		<path class="st7" d="M271.8,38.7c-0.3,2.7-2.6,10-7.3,12.7c-5.6,3.3-7.9,3.7-14.1,0.6c-5.4-2.6-7.2-10.8-7.6-13
			c-0.1-0.4-0.1-0.6-0.1-0.6s8.4-4.9,13.6-5.5c7-0.7,14.9,4.2,15.5,4.7C271.9,37.7,271.9,38.1,271.8,38.7z"/>
		<path class="st17" d="M246.3,38.3c0,0,6.7-3.3,11.4-3.4c4.7-0.1,11.2,3.1,11.8,4c0.6,0.8,0.2,2.4-0.6,3.1
			c-0.8,0.8-8.3-4.7-11.7-3.8c-3.4,0.8-10,3.9-11.1,3.7s-1.8-2.4-0.8-3C246.3,38.3,246.3,38.3,246.3,38.3z"/>
		<path class="st17" d="M258.1,39.4c0,0-0.8,12-0.2,12.4c0.5,0.4,4.5-1.4,7-3.9c2.5-2.5,0.8-5,0.2-5.5
			C264.5,41.9,260.3,39.4,258.1,39.4z"/>
		<path d="M245.5,26.3c0,0,1.5-1.6,3.8-1.7c2.3-0.2,3.6,1.6,4.4,1.1c0.8-0.4-0.2-2.6-3.3-2.5C247.2,23.2,245.9,24.7,245.5,26.3z"/>
		<path class="st33" d="M271.8,38.7c-0.4-0.3-3.2-2.3-5.9-3.2c-2.9-1-6.1-2.1-11.7-1.2c-5.6,0.9-11.4,4.8-11.4,4.8l0-0.1
			c-0.1-0.4-0.1-0.6-0.1-0.6s8.4-4.9,13.6-5.5c7-0.7,14.9,4.2,15.5,4.7C271.9,37.7,271.9,38.1,271.8,38.7z"/>
		<path d="M251.4,29.9c0,1-0.5,1.9-1.1,1.9c-0.6,0-1.1-0.8-1.1-1.9s0.5-1.9,1.1-1.9C250.9,28,251.4,28.8,251.4,29.9z"/>
		<path d="M240.5,28.4c0,0,1.1,3.2,2,3.6c0.9,0.4,1.4-8.1,2.3-9.8c0.9-1.7,0.4-3.2,0.4-3.2S238.9,19.2,240.5,28.4z"/>
		<path d="M273.5,28.3c0,0-1.6,3-2.5,3.2c-0.9,0.2-0.1-8.3-0.7-10c-0.6-1.8,0.1-3.2,0.1-3.2S276.5,19.5,273.5,28.3z"/>
		<path class="st7" d="M240.3,24.8c0,0,2.8-4.5,15.1-5.1c12.3-0.6,19,3.3,19,3.3s0.5-16-12.1-19.2C250.4,0.7,236.1,11.4,240.3,24.8z
			"/>
		<path class="st17" d="M241.5,21.8c0,0,3.5-2.5,9-3.3c5.5-0.8,9.3,0.3,10.1-0.6c0.7-0.9-4.7-0.7-7.3-1.6c-2.6-0.9,0.6-2.2,4.7-3.1
			c4.1-0.9-0.9-2.1-5.1-1.2c-4.2,0.9-1-3.2,1.3-5s8.4-1.4,9.5-1.6c1.1-0.1-1.6-2.4-8.3-0.7c-6.7,1.7-9.2,3.9-11,6.3
			C242.6,13.6,240.6,17.5,241.5,21.8z"/>
		<path class="st17" d="M273.1,21c0,0-8.4-2.7-10.1-2.9c-1.7-0.2-0.1-0.9,2.9-0.4C268.8,18.4,271.9,19.3,273.1,21z"/>
		<path d="M268.6,26c0,0-1.5-1.6-3.8-1.7c-2.3-0.2-3.6,1.6-4.4,1.1c-0.8-0.4,0.2-2.6,3.3-2.5C266.9,23,268.1,24.5,268.6,26z"/>
		<path d="M262.7,29.6c0,1,0.5,1.9,1.1,1.9c0.6,0,1.1-0.8,1.1-1.9c0-1-0.5-1.9-1.1-1.9C263.1,27.7,262.7,28.6,262.7,29.6z"/>
		<path class="st34" d="M273.7,28.6l-0.3-0.8l-3.8,1.2v-0.6c0-1.4-1.1-2.5-2.5-2.5H261c-1.4,0-2.5,1.1-2.5,2.5v0.3h-3.1v0
			c0-1.4-1.1-2.5-2.5-2.5h-6.1c-1.4,0-2.5,1.1-2.5,2.5v0.6l-3.8-1.2l-0.3,0.8l4.1,1.3v1.1c0,1.4,1.1,2.5,2.5,2.5h6.1
			c1.4,0,2.5-1.1,2.5-2.5v-1.7h3.1V31c0,1.4,1.1,2.5,2.5,2.5h6.1c1.4,0,2.5-1.1,2.5-2.5v-1.1L273.7,28.6z M254.6,31.2
			c0,0.9-0.7,1.6-1.6,1.6h-6.1c-0.9,0-1.6-0.7-1.6-1.6v-2.6c0-0.9,0.7-1.6,1.6-1.6h6.1c0.9,0,1.6,0.7,1.6,1.6V31.2z M268.7,31
			c0,0.9-0.7,1.6-1.6,1.6H261c-0.9,0-1.6-0.7-1.6-1.6v-2.6c0-0.9,0.7-1.6,1.6-1.6h6.1c0.9,0,1.6,0.7,1.6,1.6V31z"/>
		<path class="st17" d="M232,211.6c-0.2,0.1-0.7-0.3-1.4-0.8l0,0c-0.9-1.1-2.1-2.6-2.9-3.4c-0.3-0.3-0.6-0.6-0.8-0.9
			c0.2-0.4,0.3-0.4,0.3-0.4c0-0.1,1.1-0.4,2.6,0.3C231.3,207.1,232.6,211.3,232,211.6z"/>
		<path class="st17" d="M229.7,212.7c-0.2,1.3-4.1,0.1-5.2-1.4c0,0-1.7,0.9-3.4-0.5c-1.7-1.4-2-2.7-2-2.7s-2.8-0.5-3-1.6
			c0-0.2-0.2-0.6-0.4-1.3c0.3-0.6,1-0.6,1.2,0.3c0.3,1.2,1,0.1,1.6,1c0.6,0.9,0.9,2,2,3.2c1.1,1.2,1.8,0.8,1.7,0.3
			c-0.1-0.5-1.6-2.4-1.5-3.4c0-1.1-0.2-2.3-0.5-2.9c-0.3-0.7-0.1-3.1,0.3-2.6c0.4,0.5,1,0.9,1,1.8c0,0.8,0,1.5,0.7,2.2
			c0.7,0.7,2.2,4.4,3.1,5.3C226.1,211.2,229.7,212.7,229.7,212.7z"/>
		<path class="st17" d="M233,199.3C233,199.3,233,199.3,233,199.3c0,1.1-1.6,0.8-4.2-2.8c-3.2-4.4-1.5,2.6-0.2,5.5
			c-0.5-0.4-1.2-1.4-1.5-2.9c-0.6-2.6-0.6-2.8-0.6-2.8c0-0.2-0.5-2.2,0.4-2.8c0.9-0.6,2.2,2.4,3.5,4.1c1.3,1.7,2.5,1.2,2.5,1.2
			S232.9,199,233,199.3z"/>
		<path class="st17" d="M222.8,200.7c0,0-0.4-0.7-0.4-1.9c0-1.2-0.8-4.7-0.5-5.4c0.3-0.6,1.3,3.5,1.6,5c0.2,1.5,0.8,2.4,0.6,3
			C223.9,201.9,222.8,200.7,222.8,200.7z"/>
		<path class="st8" d="M289.5,168.4l-11.7,4.9c0,0,0.7,31,3.8,33.8c3.1,2.8,11-1.7,12.5-4.2c1.5-2.5,0.7-5.6,0.4-5.7
			c-0.4-0.1-1,4.2-5.1,5.6c-4.2,1.4-6.8,1.8-7.6-2.2c-0.7-4.1-2.3-22.7-1.5-24.8c0.9-2.1,10.1-6.2,11-7.1
			C292,167.5,289.5,168.4,289.5,168.4z"/>
		<ellipse class="st8" cx="259.5" cy="118.4" rx="1.7" ry="1.9"/>
		<path class="st8" d="M261.5,135.9c0,1-0.8,1.9-1.7,1.9c-1,0-1.7-0.8-1.7-1.9c0-1,0.8-1.9,1.7-1.9
			C260.7,134.1,261.5,134.9,261.5,135.9z"/>
		<ellipse class="st8" cx="259.5" cy="157.3" rx="1.7" ry="1.9"/>
	</g>
	
		<image style="overflow:visible;" width="1920" height="1080" xlink:href="9558E3B2.jpg"  transform="matrix(0.265 0 0 0.265 181.5132 -477.7461)">
	</image>
</g>
</svg>
